<?xml version="1.0" encoding="UTF-8" ?>
<!DOCTYPE svg PUBLIC "-//W3C//DTD SVG 1.1//EN" "http://www.w3.org/Graphics/SVG/1.1/DTD/svg11.dtd">
<svg width="140pt" height="137pt" viewBox="0 0 140 137" version="1.1" xmlns="http://www.w3.org/2000/svg">
<g id="#a13926ff">
<path fill="#a13926" opacity="1.00" d=" M 59.83 27.93 C 56.08 21.72 60.87 12.68 68.12 12.35 C 74.52 11.43 80.71 17.51 79.84 23.94 C 80.09 28.37 76.32 31.15 73.11 33.42 C 68.07 34.41 62.13 32.96 59.83 27.93 Z" />
<path fill="#a13926" opacity="1.00" d=" M 45.61 48.89 C 44.78 39.85 54.22 34.38 62.05 33.75 C 66.46 35.99 71.90 36.58 76.07 33.46 C 81.76 34.58 87.91 36.69 91.27 41.75 C 92.79 43.78 92.60 46.39 92.74 48.78 C 94.90 49.20 97.07 49.55 99.24 49.90 C 99.37 52.40 99.42 54.90 99.51 57.40 C 95.12 57.04 90.42 57.91 87.37 61.34 C 81.88 66.17 82.05 74.99 86.46 80.47 C 86.03 80.86 85.18 81.64 84.75 82.03 C 83.30 77.94 81.80 73.50 77.97 71.00 C 74.06 67.80 68.79 68.09 64.10 68.84 C 59.03 71.50 55.11 76.17 54.28 81.95 C 53.55 81.49 52.81 81.02 52.08 80.56 C 54.49 76.57 56.73 71.76 54.85 67.08 C 52.91 60.47 45.91 56.63 39.26 57.25 C 39.27 54.97 39.28 52.70 39.25 50.43 C 41.36 49.87 43.49 49.40 45.61 48.89 M 59.75 40.35 C 58.22 43.04 56.73 45.76 55.17 48.43 C 56.95 48.46 58.72 48.49 60.50 48.51 C 61.61 46.01 62.87 43.46 62.62 40.64 C 61.66 40.54 60.71 40.45 59.75 40.35 M 75.31 41.73 C 76.17 43.96 77.05 46.18 77.91 48.41 C 79.74 48.47 81.56 48.52 83.39 48.58 C 81.95 45.99 80.84 43.18 78.99 40.85 C 77.83 39.67 76.35 41.13 75.31 41.73 Z" />
<path fill="#a13926" opacity="1.00" d=" M 36.36 60.42 C 41.52 57.82 48.33 59.60 51.41 64.54 C 55.58 70.12 53.30 78.81 47.15 81.90 C 42.21 83.87 35.62 83.27 32.39 78.57 C 27.60 72.99 29.70 63.49 36.36 60.42 Z" />
<path fill="#a13926" opacity="1.00" d=" M 85.25 72.91 C 83.98 66.41 89.18 59.20 95.99 59.30 C 100.92 58.77 105.72 61.86 107.73 66.30 C 109.11 69.06 108.58 72.25 108.50 75.22 C 107.07 77.43 105.69 79.82 103.42 81.29 C 100.98 83.06 97.81 83.20 94.92 83.46 C 90.25 81.76 85.79 78.17 85.25 72.91 Z" />
<path fill="#a13926" opacity="1.00" d=" M 110.90 83.00 C 108.88 75.13 116.25 66.97 124.24 67.94 C 130.98 68.53 136.58 75.09 135.67 81.89 C 135.52 86.49 132.11 90.05 128.34 92.24 C 127.26 92.58 126.17 92.93 125.10 93.28 C 123.70 93.30 122.31 93.32 120.91 93.35 C 116.24 91.65 111.75 88.20 110.90 83.00 Z" />
<path fill="#a13926" opacity="1.00" d=" M 5.61 72.52 C 9.83 66.91 18.74 66.31 23.79 71.13 C 28.95 75.60 29.43 84.69 24.30 89.36 C 23.06 90.51 21.64 91.46 20.28 92.47 C 16.27 92.75 11.65 93.61 8.26 90.85 C 2.40 86.91 0.90 77.93 5.61 72.52 Z" />
<path fill="#a13926" opacity="1.00" d=" M 65.34 70.60 C 72.28 68.04 80.36 73.15 81.96 80.19 C 83.60 85.63 80.34 91.00 76.23 94.34 C 74.14 95.00 72.06 95.69 69.99 96.44 C 65.15 95.81 60.20 93.61 57.97 89.00 C 54.04 82.29 57.89 72.76 65.34 70.60 Z" />
<path fill="#a13926" opacity="1.00" d=" M 24.57 91.69 C 28.01 88.76 29.41 84.44 30.68 80.26 C 34.47 83.60 39.56 86.43 44.76 84.90 C 47.87 84.23 51.25 80.54 54.00 84.03 C 55.26 87.64 56.57 91.29 59.22 94.16 C 51.56 95.86 43.28 99.45 39.86 107.02 C 36.19 100.65 30.75 95.56 24.57 91.69 Z" />
<path fill="#a13926" opacity="1.00" d=" M 95.97 85.30 C 100.38 85.47 104.39 83.19 107.45 80.19 C 109.38 84.24 110.35 88.83 113.83 91.98 C 107.74 95.60 102.36 100.61 99.08 106.95 C 95.78 100.74 89.48 97.02 82.97 94.97 C 81.78 94.64 80.60 94.31 79.42 93.98 C 81.75 91.45 83.33 88.38 84.16 85.05 C 84.42 83.49 85.99 82.82 87.28 82.26 C 90.13 83.38 92.79 85.27 95.97 85.30 Z" />
<path fill="#a13926" opacity="1.00" d=" M 0.00 90.48 C 0.77 90.16 2.30 89.51 3.06 89.19 C 5.79 92.06 8.98 94.89 13.08 95.39 C 16.62 96.17 20.01 94.53 23.20 93.24 C 29.24 96.91 34.86 101.75 38.01 108.19 C 39.95 112.18 39.31 116.74 39.41 121.02 C 32.16 120.44 25.07 118.64 18.17 116.43 C 11.74 114.28 5.32 111.65 0.00 107.36 L 0.00 90.48 Z" />
<path fill="#a13926" opacity="1.00" d=" M 125.48 95.38 C 129.50 94.81 132.58 92.00 135.30 89.22 C 136.87 89.92 138.43 90.63 140.00 91.35 L 140.00 106.17 C 135.10 110.78 128.77 113.42 122.56 115.76 C 115.01 118.24 107.26 120.39 99.30 120.97 C 99.38 116.11 98.62 110.79 101.36 106.46 C 104.65 101.04 109.37 96.24 115.13 93.52 C 118.54 94.28 121.88 96.23 125.48 95.38 Z" />
<path fill="#a13926" opacity="1.00" d=" M 41.64 107.67 C 44.80 100.38 52.97 97.44 60.11 95.60 C 65.53 99.07 72.62 99.55 77.97 95.65 C 85.42 97.35 93.95 100.48 97.13 108.08 C 98.04 112.46 97.33 117.00 97.58 121.44 C 84.24 123.59 70.65 123.81 57.17 123.24 C 51.87 122.36 46.38 122.88 41.19 121.30 C 41.44 116.76 40.76 112.15 41.64 107.67 Z" />
</g>
</svg>
