<?xml version="1.0" encoding="UTF-8" ?>
<!DOCTYPE svg PUBLIC "-//W3C//DTD SVG 1.1//EN" "http://www.w3.org/Graphics/SVG/1.1/DTD/svg11.dtd">
<svg width="140pt" height="137pt" viewBox="0 0 140 137" version="1.1" xmlns="http://www.w3.org/2000/svg">
<g id="#a13926ff">
<path fill="#a13926" opacity="1.00" d=" M 67.12 2.05 C 67.14 -0.43 71.33 -0.49 71.38 2.00 C 71.84 6.58 71.55 11.20 71.39 15.79 C 70.47 15.65 68.63 15.36 67.71 15.22 C 66.33 11.02 66.77 6.40 67.12 2.05 Z" />
<path fill="#a13926" opacity="1.00" d=" M 56.26 9.00 C 55.68 7.36 58.79 5.47 59.72 7.26 C 61.69 9.67 63.06 12.67 62.69 15.85 C 58.59 16.28 57.28 12.11 56.26 9.00 Z" />
<path fill="#a13926" opacity="1.00" d=" M 75.15 13.55 C 76.52 10.83 77.98 8.12 80.03 5.84 C 80.95 7.06 81.87 8.29 82.70 9.57 C 81.39 11.75 80.15 13.97 78.90 16.18 C 77.63 15.32 76.38 14.45 75.15 13.55 Z" />
<path fill="#a13926" opacity="1.00" d=" M 6.46 20.93 C 6.39 18.38 5.68 14.19 9.08 13.52 C 30.46 12.01 52.25 18.95 69.15 32.09 C 86.24 19.02 108.07 11.87 129.60 13.56 C 133.72 15.22 132.13 20.74 131.35 24.03 C 127.81 23.71 127.29 20.53 127.30 17.62 C 121.58 17.72 115.85 18.30 110.18 19.07 C 106.09 19.79 102.07 20.81 98.08 21.97 C 95.68 22.88 93.27 23.80 90.84 24.67 C 83.30 28.08 75.98 32.21 69.79 37.76 C 65.33 35.14 61.37 31.75 56.83 29.26 C 45.57 22.89 32.87 18.78 19.91 18.21 C 16.94 17.73 13.93 17.65 10.94 17.67 C 10.83 19.76 10.67 21.85 10.44 23.94 C 8.96 23.35 6.18 23.16 6.46 20.93 Z" />
<path fill="#a13926" opacity="1.00" d=" M 0.00 32.30 C 1.08 29.43 3.61 27.07 6.83 27.32 C 28.65 26.97 51.23 32.04 69.20 44.89 C 87.32 32.00 110.05 26.87 132.04 27.34 C 136.01 27.21 139.01 31.16 138.52 34.96 C 138.50 61.78 138.56 88.60 138.48 115.42 C 137.15 116.78 135.81 118.12 134.45 119.46 C 127.61 119.41 120.76 119.13 113.93 119.63 C 98.22 121.13 82.52 125.80 69.53 134.98 C 53.75 124.59 34.86 119.18 15.99 119.34 C 12.31 119.29 8.61 119.67 4.94 119.26 C 2.55 118.70 1.21 116.37 0.00 114.45 L 0.00 32.30 M 6.65 31.64 C 6.13 31.95 5.10 32.57 4.58 32.88 C 4.51 58.91 4.59 84.95 4.54 110.99 C 4.72 112.22 4.14 114.11 5.74 114.58 C 10.14 114.81 14.55 114.39 18.96 114.59 C 35.75 115.28 52.73 119.25 67.15 128.13 C 66.80 101.63 67.39 75.14 66.79 48.65 C 53.04 39.17 36.66 33.94 20.10 32.47 C 15.60 32.41 11.13 31.84 6.65 31.64 M 99.04 35.96 C 94.51 37.36 90.03 38.94 85.63 40.72 L 85.39 41.05 C 80.46 43.07 75.96 45.93 71.56 48.90 C 71.52 75.27 71.63 101.65 71.51 128.02 C 85.73 119.27 102.47 115.37 119.01 114.60 C 123.78 114.31 128.59 114.96 133.34 114.46 C 134.21 113.13 134.15 111.52 134.18 110.00 C 134.11 86.34 134.17 62.67 134.15 39.01 C 134.12 36.77 133.91 34.54 133.70 32.31 C 122.02 31.82 110.32 32.77 99.04 35.96 Z" />
<path fill="#a13926" opacity="1.00" d=" M 18.06 46.98 C 19.74 44.02 23.43 45.63 26.11 45.63 C 35.73 47.08 45.59 49.73 53.55 55.53 C 53.18 56.36 52.44 58.00 52.07 58.83 C 43.43 55.10 34.74 50.85 25.17 50.29 C 22.63 49.62 18.53 50.44 18.06 46.98 Z" />
<path fill="#a13926" opacity="1.00" d=" M 86.95 53.93 C 96.38 48.69 107.11 45.53 117.92 45.29 C 119.90 45.01 121.58 48.55 119.22 49.29 C 115.55 50.24 111.74 50.39 108.00 50.94 C 103.89 51.99 99.83 53.24 95.82 54.64 C 92.87 55.95 90.13 57.92 86.92 58.52 C 85.28 57.39 84.65 54.71 86.95 53.93 Z" />
<path fill="#a13926" opacity="1.00" d=" M 19.14 62.17 C 17.74 60.91 18.15 58.50 20.12 58.29 C 26.60 58.11 32.99 59.71 39.15 61.56 C 44.20 63.31 49.40 65.10 53.56 68.57 C 53.19 69.39 52.45 71.03 52.08 71.85 C 46.39 69.52 40.92 66.65 34.98 64.98 C 29.80 63.49 24.34 63.56 19.14 62.17 Z" />
<path fill="#a13926" opacity="1.00" d=" M 89.59 65.46 C 98.82 60.97 108.99 58.37 119.27 58.09 C 119.68 59.41 120.08 60.73 120.37 62.08 C 118.34 62.56 116.28 62.88 114.24 63.27 C 112.16 63.42 110.08 63.60 108.01 63.87 C 105.39 64.63 102.75 65.32 100.14 66.10 C 98.71 66.62 97.28 67.15 95.85 67.65 C 93.02 68.94 90.25 70.34 87.53 71.84 C 86.72 70.77 85.30 69.92 85.30 68.43 C 86.42 67.06 88.03 66.24 89.59 65.46 Z" />
<path fill="#a13926" opacity="1.00" d=" M 19.02 75.12 C 17.63 73.67 18.17 71.88 20.00 71.26 C 26.03 71.18 32.01 72.42 37.77 74.11 C 43.29 75.93 48.96 77.84 53.55 81.53 C 53.18 82.35 52.44 83.99 52.07 84.81 C 45.13 81.82 38.28 78.57 30.87 76.92 C 26.91 76.38 22.88 76.21 19.02 75.12 Z" />
<path fill="#a13926" opacity="1.00" d=" M 86.26 80.38 C 95.77 74.75 106.84 71.57 117.88 71.27 C 119.68 70.96 120.00 72.87 120.55 74.11 C 118.98 75.99 116.30 75.65 114.14 76.27 C 112.08 76.41 110.02 76.60 107.97 76.89 C 105.35 77.64 102.72 78.33 100.11 79.13 C 98.59 79.64 97.07 80.18 95.54 80.68 L 95.31 81.00 C 92.65 82.11 90.08 83.41 87.55 84.79 C 86.38 83.71 84.18 81.72 86.26 80.38 Z" />
<path fill="#a13926" opacity="1.00" d=" M 19.28 84.39 C 25.95 83.83 32.58 85.63 38.94 87.46 C 44.05 89.24 49.36 91.02 53.56 94.57 C 53.19 95.38 52.44 97.02 52.07 97.84 C 46.40 95.49 40.92 92.65 34.98 90.96 C 29.83 89.45 24.38 89.58 19.22 88.15 C 17.75 87.09 18.23 85.52 19.28 84.39 Z" />
<path fill="#a13926" opacity="1.00" d=" M 90.91 90.81 C 99.64 86.77 109.15 84.41 118.77 84.08 C 119.18 84.58 120.00 85.58 120.41 86.07 C 120.15 86.66 119.62 87.82 119.36 88.40 C 117.62 88.62 115.89 88.87 114.16 89.18 C 107.83 89.51 101.75 91.50 95.83 93.63 C 93.01 94.94 90.24 96.33 87.52 97.83 C 86.69 96.72 85.22 95.84 85.32 94.28 C 86.86 92.68 88.93 91.75 90.91 90.81 Z" />
<path fill="#a13926" opacity="1.00" d=" M 18.73 97.82 C 21.26 96.54 24.23 97.55 26.91 97.69 C 36.25 99.22 45.85 101.82 53.56 107.52 C 53.18 108.34 52.44 109.98 52.06 110.80 C 45.14 107.80 38.29 104.58 30.89 102.90 C 26.96 102.36 22.95 102.25 19.13 101.10 C 18.02 100.24 18.20 98.95 18.73 97.82 Z" />
<path fill="#a13926" opacity="1.00" d=" M 86.32 106.30 C 93.86 101.74 102.48 99.11 111.15 97.73 C 113.85 97.47 116.64 96.86 119.32 97.51 C 120.12 98.55 120.45 99.75 120.30 101.09 C 118.29 101.55 116.24 101.83 114.21 102.22 C 107.81 102.43 101.71 104.56 95.72 106.64 C 92.97 107.96 90.24 109.33 87.56 110.80 C 86.36 109.74 84.16 107.59 86.32 106.30 Z" />
</g>
</svg>
