<?xml version="1.0" encoding="UTF-8" ?>
<!DOCTYPE svg PUBLIC "-//W3C//DTD SVG 1.1//EN" "http://www.w3.org/Graphics/SVG/1.1/DTD/svg11.dtd">
<svg width="140pt" height="140pt" viewBox="0 0 140 140" version="1.1" xmlns="http://www.w3.org/2000/svg">
<g id="#a23926ff">
<path fill="#a23926" opacity="1.00" d=" M 8.31 25.10 C 8.05 19.51 12.68 14.61 17.95 13.45 C 23.43 12.58 28.33 16.80 30.35 21.60 C 40.39 21.60 50.43 21.58 60.47 21.61 C 60.40 27.85 60.43 34.09 60.45 40.34 C 65.45 40.48 70.47 40.08 75.46 40.51 C 75.71 40.90 76.22 41.69 76.47 42.09 C 68.96 42.23 61.44 42.58 53.94 42.44 C 53.94 44.35 53.95 46.27 53.95 48.19 C 54.74 48.19 56.32 48.19 57.11 48.18 C 57.17 46.98 57.27 45.78 57.41 44.59 C 65.80 44.31 74.22 44.33 82.62 44.61 C 82.56 45.81 82.51 47.00 82.45 48.20 C 83.28 48.20 84.94 48.19 85.76 48.19 C 85.75 46.28 85.76 44.37 85.76 42.46 C 83.69 42.34 81.63 42.16 79.57 41.96 C 79.54 35.18 79.62 28.39 79.52 21.61 C 89.57 21.58 99.61 21.60 109.65 21.60 C 111.38 17.62 114.75 14.25 119.12 13.43 C 126.90 12.40 134.31 21.39 130.88 28.76 C 128.77 34.48 121.66 37.48 116.11 34.93 C 112.93 33.74 111.10 30.77 109.67 27.89 C 101.72 27.83 93.77 27.87 85.83 27.86 C 85.83 31.98 85.83 36.10 85.83 40.22 C 86.38 40.33 87.47 40.54 88.02 40.65 C 87.94 43.14 87.91 45.63 87.88 48.13 C 89.47 48.19 91.07 48.25 92.66 48.32 C 93.15 51.60 92.05 54.55 90.40 57.31 C 90.05 60.76 90.35 64.24 90.21 67.71 C 96.72 68.23 103.14 67.05 109.62 66.90 C 111.41 62.73 115.10 58.86 119.98 59.06 C 126.08 58.41 131.82 63.97 131.69 70.03 C 131.79 76.05 126.05 81.58 119.98 80.94 C 115.04 81.13 111.35 77.15 109.53 72.95 C 107.16 72.94 104.80 73.04 102.43 73.10 C 101.54 82.19 101.91 91.32 101.83 100.44 C 103.16 100.45 104.50 100.46 105.83 100.48 C 105.84 101.02 105.84 102.10 105.85 102.63 C 99.18 102.67 92.50 102.63 85.83 102.66 C 85.83 105.82 85.83 108.98 85.83 112.14 C 93.77 112.13 101.72 112.17 109.67 112.11 C 111.49 107.50 115.89 103.72 121.09 104.20 C 128.15 104.27 133.78 112.37 131.01 118.96 C 128.94 124.43 121.99 128.67 116.42 125.65 C 113.19 124.33 111.12 121.43 109.65 118.40 C 99.61 118.40 89.57 118.42 79.52 118.39 C 79.60 113.13 79.59 107.88 79.54 102.62 C 73.18 102.66 66.81 102.67 60.45 102.62 C 60.42 107.88 60.40 113.13 60.48 118.39 C 50.43 118.42 40.39 118.40 30.34 118.40 C 28.61 122.40 25.21 125.78 20.82 126.58 C 13.05 127.56 5.68 118.56 9.14 111.20 C 11.26 105.50 18.37 102.52 23.91 105.08 C 27.08 106.26 28.90 109.24 30.33 112.11 C 38.28 112.17 46.23 112.13 54.17 112.14 C 54.17 108.98 54.17 105.81 54.17 102.65 C 47.20 102.61 40.23 102.74 33.27 102.56 C 33.28 102.07 33.29 101.07 33.29 100.57 C 34.84 100.50 36.38 100.44 37.92 100.37 C 37.70 91.26 37.81 82.16 37.85 73.05 C 35.44 73.05 33.03 73.06 30.61 73.05 C 28.87 77.30 25.03 81.24 20.09 80.94 C 12.32 81.80 5.95 72.53 9.55 65.59 C 11.95 59.25 20.63 57.02 26.02 60.87 C 28.21 62.29 29.43 64.67 30.59 66.92 C 36.93 66.99 43.20 68.28 49.57 67.68 C 49.48 64.19 49.49 60.69 49.48 57.20 C 47.40 54.64 46.71 51.49 47.15 48.25 C 48.70 48.22 50.26 48.19 51.81 48.16 C 51.77 45.66 51.71 43.17 51.66 40.67 C 52.29 40.56 53.54 40.33 54.17 40.22 C 54.17 36.10 54.17 31.98 54.17 27.86 C 46.23 27.87 38.28 27.83 30.34 27.88 C 28.67 31.74 25.50 35.27 21.09 35.71 C 14.75 36.86 8.46 31.44 8.31 25.10 M 17.31 20.32 C 14.37 21.68 13.40 25.89 15.93 28.14 C 18.53 31.38 24.43 29.21 24.41 25.11 C 24.98 21.50 20.45 18.32 17.31 20.32 M 118.32 20.29 C 115.09 21.66 114.55 26.61 117.43 28.62 C 119.78 30.69 123.72 29.69 124.95 26.86 C 127.42 23.08 122.09 17.90 118.32 20.29 M 59.01 46.42 C 59.26 46.79 59.74 47.55 59.98 47.93 C 63.06 48.28 66.17 48.07 69.26 48.00 C 69.05 47.61 68.63 46.82 68.42 46.42 C 65.29 46.14 62.14 46.33 59.01 46.42 M 71.33 46.45 C 71.12 46.84 70.72 47.62 70.52 48.01 C 73.70 48.07 76.90 48.24 80.08 47.95 L 80.65 46.72 C 77.60 45.99 74.41 46.22 71.33 46.45 M 49.52 50.15 C 49.52 50.59 49.52 51.47 49.51 51.90 C 63.14 52.14 76.77 51.92 90.40 52.00 C 90.40 51.52 90.39 50.54 90.39 50.06 C 76.77 50.15 63.14 49.94 49.52 50.15 M 52.85 55.98 C 64.62 56.11 76.40 55.88 88.17 56.08 C 88.59 55.52 89.44 54.41 89.87 53.85 C 76.53 53.91 63.20 53.87 49.86 53.87 C 50.66 54.85 51.29 56.32 52.85 55.98 M 51.74 58.05 C 51.68 66.68 51.88 75.33 51.67 83.97 C 51.07 83.97 49.89 83.97 49.30 83.97 C 49.41 83.06 49.61 81.24 49.72 80.33 C 46.49 80.18 43.27 80.18 40.05 80.24 C 40.15 84.23 40.16 88.23 40.07 92.22 C 43.17 92.22 46.28 92.22 49.39 92.24 C 49.53 90.53 49.01 87.70 51.69 88.88 C 51.89 92.74 51.70 96.60 51.72 100.45 C 54.60 100.28 57.49 100.25 60.38 100.26 C 60.55 94.70 59.84 89.04 60.66 83.56 C 66.92 83.30 73.21 83.30 79.47 83.63 C 79.39 89.25 79.44 94.87 79.40 100.49 C 82.26 100.35 85.12 100.30 87.98 100.40 C 87.80 86.29 87.89 72.18 87.94 58.07 C 75.87 58.03 63.80 58.08 51.74 58.05 M 17.51 65.59 C 14.46 66.94 13.72 71.42 16.31 73.60 C 18.96 76.28 24.16 74.64 24.63 70.86 C 25.53 67.02 20.93 63.67 17.51 65.59 M 118.42 65.49 C 115.26 66.88 114.43 71.62 117.31 73.72 C 119.83 76.21 124.54 74.61 125.34 71.25 C 126.60 67.46 121.96 63.67 118.42 65.49 M 37.83 69.76 C 40.32 73.59 45.49 71.46 49.26 71.82 C 49.41 71.30 49.71 70.24 49.85 69.71 C 45.85 69.66 41.84 69.63 37.83 69.76 M 89.75 69.76 C 89.94 70.27 90.32 71.28 90.51 71.79 C 94.21 71.52 99.38 73.60 101.66 69.72 C 97.69 69.62 93.72 69.66 89.75 69.76 M 40.14 73.93 C 40.10 75.39 40.05 76.86 40.01 78.33 C 43.19 78.35 46.37 78.35 49.56 78.35 C 49.53 76.87 49.51 75.39 49.49 73.92 C 46.37 73.92 43.25 73.92 40.14 73.93 M 90.28 73.92 C 90.24 75.39 90.20 76.86 90.16 78.33 C 93.36 78.36 96.56 78.36 99.75 78.32 C 99.71 76.86 99.67 75.39 99.63 73.93 C 96.51 73.92 93.39 73.92 90.28 73.92 M 90.20 80.23 C 90.28 84.23 90.29 88.23 90.22 92.23 C 93.35 92.21 96.49 92.22 99.62 92.30 C 99.64 88.27 99.64 84.25 99.69 80.22 C 96.53 80.20 93.37 80.20 90.20 80.23 M 62.52 85.39 C 62.59 90.41 62.59 95.44 62.53 100.46 C 64.63 100.44 66.74 100.44 68.84 100.41 C 68.67 95.40 68.69 90.40 68.83 85.39 C 66.72 85.38 64.62 85.38 62.52 85.39 M 70.92 85.37 C 70.94 90.39 70.93 95.41 70.93 100.44 C 73.02 100.45 75.10 100.45 77.19 100.46 C 77.18 95.46 77.12 90.45 77.27 85.45 C 75.15 85.43 73.04 85.35 70.92 85.37 M 40.08 94.22 C 40.08 96.29 40.08 98.36 40.04 100.42 C 43.21 100.45 46.38 100.45 49.54 100.44 C 49.51 98.36 49.51 96.27 49.49 94.18 C 46.36 94.21 43.22 94.22 40.08 94.22 M 90.24 94.22 C 90.23 96.29 90.22 98.35 90.18 100.42 C 93.38 100.47 96.58 100.47 99.78 100.36 C 99.70 98.31 99.68 96.26 99.64 94.20 C 96.51 94.21 93.37 94.21 90.24 94.22 M 17.43 110.75 C 14.64 112.07 13.34 116.00 15.67 118.38 C 18.06 121.81 24.06 120.09 24.38 115.99 C 25.20 112.31 20.76 108.88 17.43 110.75 M 118.38 110.73 C 114.76 112.29 114.56 118.12 118.30 119.66 C 120.85 121.28 124.30 119.51 125.22 116.83 C 126.91 113.07 122.00 108.69 118.38 110.73 Z" />
<path fill="#a23926" opacity="1.00" d=" M 55.35 64.38 C 58.51 64.36 60.77 61.26 64.03 61.97 C 66.12 62.16 68.00 63.12 69.87 63.97 C 72.87 62.35 76.25 61.74 79.63 62.19 C 79.92 62.62 80.49 63.48 80.78 63.90 C 81.67 63.97 83.46 64.10 84.35 64.16 C 84.32 69.03 84.40 73.89 84.27 78.76 C 74.64 78.71 65.01 78.88 55.38 78.66 C 55.42 73.90 55.45 69.14 55.35 64.38 M 61.60 63.76 C 61.57 66.88 61.58 69.99 61.55 73.11 C 64.09 73.33 66.57 73.97 68.84 75.16 C 68.71 72.05 68.71 68.93 68.84 65.82 C 66.65 64.48 64.14 63.95 61.60 63.76 M 70.90 65.79 C 70.96 68.97 70.96 72.16 70.83 75.34 C 73.11 74.14 75.60 73.44 78.17 73.22 C 78.16 70.11 78.17 67.00 78.17 63.89 C 75.63 64.00 73.13 64.55 70.90 65.79 M 57.59 65.97 C 57.60 69.62 57.60 73.26 57.60 76.91 C 60.99 77.03 64.40 77.08 67.78 76.69 C 65.16 75.32 62.21 75.09 59.32 75.03 C 59.36 71.99 59.38 68.95 59.38 65.91 L 57.59 65.97 M 80.42 66.36 C 80.18 69.27 80.37 72.20 80.33 75.12 C 77.55 75.16 74.75 75.45 72.20 76.64 C 75.50 77.08 78.83 77.04 82.14 76.88 C 82.12 73.11 82.16 69.34 82.09 65.58 C 81.67 65.77 80.84 66.17 80.42 66.36 Z" />
</g>
</svg>
