<?xml version="1.0" encoding="UTF-8" ?>
<!DOCTYPE svg PUBLIC "-//W3C//DTD SVG 1.1//EN" "http://www.w3.org/Graphics/SVG/1.1/DTD/svg11.dtd">
<svg width="140pt" height="140pt" viewBox="0 0 140 140" version="1.1" xmlns="http://www.w3.org/2000/svg">
<g id="#a23926ff">
<path fill="#a23926" opacity="1.00" d=" M 84.09 5.92 C 87.88 3.82 92.29 3.37 96.18 1.50 C 99.07 1.33 101.98 1.32 104.87 1.51 C 108.27 3.28 112.23 3.48 115.65 5.21 C 125.50 9.45 133.26 18.16 136.29 28.44 C 136.93 30.71 137.37 33.06 138.47 35.17 C 139.55 41.22 137.35 46.98 135.51 52.62 C 130.12 67.55 114.31 77.94 98.43 76.52 C 98.46 79.46 98.46 82.40 98.43 85.34 C 107.95 85.27 117.47 85.36 126.99 85.28 C 128.98 85.34 131.10 85.10 132.94 86.01 C 135.62 87.19 136.88 90.01 138.61 92.19 C 138.61 93.41 138.61 94.64 138.62 95.88 C 136.90 98.06 135.71 100.92 133.01 102.07 C 130.40 103.25 127.44 102.62 124.68 102.73 C 125.38 106.31 123.79 110.59 119.93 111.43 C 112.77 111.72 105.59 111.47 98.43 111.50 C 98.52 120.55 98.39 129.59 98.51 138.64 C 72.22 138.61 45.93 138.60 19.65 138.64 C 19.73 132.53 19.63 126.43 19.74 120.33 C 13.64 120.33 7.53 120.22 1.43 120.42 C 1.28 89.77 1.50 59.12 1.31 28.46 C 22.50 28.45 43.68 28.48 64.87 28.45 C 67.93 18.77 74.87 10.31 84.09 5.92 M 100.79 17.12 C 104.27 22.00 111.62 21.12 115.08 25.99 C 117.11 28.65 116.84 33.06 120.41 34.40 C 124.62 35.60 128.88 33.83 132.56 31.89 C 130.41 24.25 125.89 17.21 119.30 12.66 C 113.60 8.42 106.46 6.70 99.45 6.53 C 98.14 10.02 98.27 14.20 100.79 17.12 M 81.66 12.70 C 85.33 18.64 90.95 24.49 89.71 32.07 C 89.82 38.54 83.61 41.68 79.78 45.81 C 84.59 45.91 89.39 45.83 94.20 45.83 C 94.25 42.34 93.81 38.79 94.43 35.33 C 96.19 30.22 103.75 28.78 107.25 32.91 C 109.49 35.88 111.22 39.46 114.65 41.30 C 120.18 44.89 127.01 43.03 133.13 44.20 C 133.21 41.72 133.26 39.23 133.34 36.74 C 127.89 39.48 120.27 41.32 115.35 36.62 C 112.16 34.13 112.97 28.73 108.98 27.05 C 104.94 25.31 100.30 24.23 97.51 20.52 C 94.10 16.94 93.79 11.80 94.24 7.14 C 89.80 8.38 85.57 10.25 81.66 12.70 M 68.47 45.83 C 70.56 45.84 72.65 45.84 74.74 45.82 C 75.76 43.90 76.73 41.87 78.42 40.44 C 80.82 38.26 84.15 36.55 84.84 33.07 C 86.91 26.29 80.91 21.14 78.08 15.65 C 70.06 23.39 66.61 34.89 68.47 45.83 M 6.51 32.74 C 6.55 60.45 6.57 88.16 6.50 115.87 C 10.90 115.83 15.31 115.84 19.71 115.86 C 19.69 112.98 19.69 110.10 19.71 107.22 C 16.75 107.24 13.79 107.25 10.83 107.25 C 10.83 105.75 10.83 104.25 10.83 102.75 C 13.79 102.75 16.74 102.76 19.70 102.79 C 19.71 101.34 19.73 99.90 19.74 98.45 C 16.77 98.45 13.80 98.47 10.83 98.46 C 10.83 97.03 10.82 95.60 10.82 94.17 C 13.77 94.15 16.71 94.16 19.66 94.17 C 19.69 92.67 19.72 91.17 19.75 89.68 C 16.74 89.69 13.74 89.71 10.73 89.58 C 10.77 88.52 10.84 86.40 10.87 85.34 C 13.82 85.30 16.78 85.32 19.73 85.35 C 19.71 83.84 19.69 82.33 19.67 80.83 C 16.72 80.84 13.77 80.85 10.82 80.83 C 10.82 79.40 10.83 77.97 10.83 76.54 C 13.80 76.53 16.77 76.54 19.74 76.55 C 19.73 75.10 19.71 73.66 19.70 72.21 C 16.74 72.24 13.79 72.25 10.83 72.25 C 10.83 70.75 10.83 69.25 10.83 67.75 C 13.73 67.75 16.62 67.76 19.52 67.79 C 19.74 66.30 20.00 64.81 20.28 63.33 C 17.13 63.48 13.98 63.49 10.82 63.46 C 10.86 54.73 10.87 45.99 10.82 37.26 C 28.34 37.25 45.86 37.23 63.38 37.27 C 63.55 35.76 63.72 34.25 63.89 32.73 C 44.76 32.77 25.64 32.75 6.51 32.74 M 98.71 37.44 C 98.16 41.27 98.53 45.18 98.45 49.05 C 98.41 51.53 98.64 54.55 101.08 55.92 C 104.17 57.26 108.16 56.54 110.58 59.32 C 113.64 61.70 113.83 65.74 114.29 69.26 C 122.60 64.96 129.20 57.62 132.08 48.67 C 128.74 48.28 125.37 48.17 122.01 48.17 C 116.77 48.14 111.64 45.77 108.01 42.03 C 106.14 40.12 105.05 37.62 103.30 35.62 C 101.61 34.69 99.14 35.43 98.71 37.44 M 15.36 59.20 C 18.53 59.16 21.71 59.15 24.89 59.17 C 29.32 54.73 33.77 50.31 38.18 45.85 C 46.74 45.86 55.30 45.82 63.86 45.87 C 63.69 44.41 63.53 42.95 63.38 41.49 C 47.35 41.57 31.33 41.56 15.31 41.49 C 15.33 47.39 15.26 53.30 15.36 59.20 M 41.50 50.31 C 41.50 51.41 41.50 53.60 41.50 54.69 C 57.58 54.68 73.66 54.69 89.74 54.69 C 89.64 63.41 89.69 72.14 89.71 80.86 C 69.29 80.83 48.86 80.83 28.44 80.86 C 28.47 76.49 28.45 72.11 28.49 67.74 C 27.03 67.74 25.58 67.74 24.12 67.74 C 24.15 89.65 24.21 111.56 24.09 133.47 C 47.45 133.45 70.82 133.48 94.18 133.46 C 94.15 126.15 94.14 118.85 94.18 111.55 C 92.67 111.54 91.16 111.54 89.65 111.54 C 89.65 110.09 89.66 108.65 89.66 107.21 C 98.46 107.28 107.26 107.24 116.06 107.26 C 117.91 107.44 120.90 106.61 120.14 104.17 C 118.88 102.59 116.74 102.74 114.94 102.72 C 101.29 102.80 87.65 102.70 74.00 102.78 C 67.16 103.17 60.71 100.47 54.14 99.02 C 49.45 98.44 48.75 90.98 53.12 89.44 C 58.46 87.89 63.87 86.53 69.32 85.44 C 77.60 85.12 85.89 85.42 94.18 85.32 C 94.15 73.67 94.13 62.02 94.19 50.37 C 76.63 50.24 59.06 50.35 41.50 50.31 M 27.28 63.43 C 30.61 63.50 33.93 63.48 37.26 63.46 C 37.24 60.15 37.25 56.84 37.33 53.53 C 34.06 56.91 30.77 60.28 27.28 63.43 M 41.50 59.13 C 41.53 62.01 41.55 64.90 41.56 67.78 C 38.62 67.76 35.68 67.75 32.74 67.74 C 32.75 70.67 32.75 73.61 32.73 76.54 C 50.27 76.54 67.81 76.53 85.36 76.55 C 85.29 70.74 85.29 64.94 85.35 59.13 C 70.74 59.17 56.12 59.17 41.50 59.13 M 98.38 59.92 C 98.50 63.92 98.46 67.91 98.44 71.91 C 102.22 72.00 106.00 71.71 109.70 70.88 C 109.27 67.80 109.71 63.24 106.08 61.93 C 103.51 61.26 100.83 61.00 98.38 59.92 M 54.46 93.80 C 58.60 95.98 63.38 96.37 67.82 97.71 C 67.78 95.26 67.78 92.81 67.81 90.36 C 63.39 91.64 58.88 92.56 54.46 93.80 M 72.19 89.68 C 72.24 92.61 72.24 95.54 72.18 98.47 C 85.31 98.48 98.44 98.42 111.57 98.50 C 111.54 95.55 111.54 92.60 111.57 89.66 C 98.45 89.72 85.32 89.68 72.19 89.68 M 115.82 89.68 C 115.84 92.61 115.84 95.53 115.82 98.45 C 120.83 98.17 126.05 99.17 130.92 97.83 C 134.51 96.25 133.78 90.64 129.94 89.97 C 125.27 89.31 120.53 89.84 115.82 89.68 Z" />
<path fill="#a23926" opacity="1.00" d=" M 28.42 85.32 C 34.25 85.32 40.08 85.30 45.90 85.33 C 45.90 86.77 45.90 88.22 45.90 89.67 C 40.08 89.70 34.25 89.68 28.42 89.68 C 28.42 88.59 28.42 86.41 28.42 85.32 Z" />
<path fill="#a23926" opacity="1.00" d=" M 28.45 94.13 C 34.26 94.18 40.06 94.16 45.87 94.14 C 45.88 95.58 45.89 97.03 45.91 98.47 C 40.08 98.46 34.25 98.44 28.42 98.49 C 28.43 97.04 28.44 95.58 28.45 94.13 Z" />
<path fill="#a23926" opacity="1.00" d=" M 28.47 129.18 C 28.44 120.37 28.49 111.55 28.45 102.74 C 38.69 102.77 48.93 102.74 59.17 102.76 C 59.14 111.56 59.15 120.36 59.17 129.16 C 48.93 129.16 38.70 129.12 28.47 129.18 M 32.73 107.23 C 32.79 113.08 32.70 118.92 32.79 124.77 C 40.11 124.59 47.43 124.74 54.74 124.67 C 54.65 118.86 54.68 113.04 54.71 107.22 C 47.39 107.26 40.06 107.25 32.73 107.23 Z" />
<path fill="#a23926" opacity="1.00" d=" M 63.45 107.21 C 70.74 107.26 78.02 107.31 85.30 107.18 C 85.32 108.63 85.34 110.09 85.37 111.55 C 78.05 111.53 70.73 111.53 63.41 111.55 C 63.43 110.10 63.44 108.65 63.45 107.21 Z" />
<path fill="#a23926" opacity="1.00" d=" M 63.48 115.82 C 72.19 115.85 80.90 115.89 89.61 115.80 C 89.66 117.31 89.72 118.81 89.77 120.32 C 80.98 120.32 72.19 120.29 63.41 120.34 C 63.43 118.83 63.46 117.33 63.48 115.82 Z" />
<path fill="#a23926" opacity="1.00" d=" M 63.41 124.66 C 72.19 124.72 80.97 124.68 89.75 124.68 C 89.72 126.18 89.69 127.68 89.66 129.18 C 80.93 129.14 72.21 129.14 63.48 129.18 C 63.46 127.67 63.43 126.16 63.41 124.66 Z" />
</g>
</svg>
