<?xml version="1.0" encoding="UTF-8" ?>
<!DOCTYPE svg PUBLIC "-//W3C//DTD SVG 1.1//EN" "http://www.w3.org/Graphics/SVG/1.1/DTD/svg11.dtd">
<svg width="140pt" height="140pt" viewBox="0 0 140 140" version="1.1" xmlns="http://www.w3.org/2000/svg">
<g id="#a03826ff">
<path fill="#a03826" opacity="1.00" d=" M 16.93 0.00 L 108.04 0.00 C 109.35 5.01 108.70 10.24 108.79 15.35 C 114.37 15.40 120.04 14.84 125.53 16.06 C 125.76 56.97 125.58 97.89 125.62 138.80 C 124.98 139.10 123.70 139.70 123.06 140.00 L 34.52 140.00 C 33.69 134.94 33.83 129.78 33.89 124.67 C 28.10 124.68 22.32 124.66 16.54 124.71 C 15.99 124.31 14.91 123.52 14.37 123.12 C 14.37 82.49 14.36 41.85 14.38 1.21 C 15.02 0.91 16.30 0.30 16.93 0.00 M 20.52 5.42 C 20.51 43.27 20.50 81.11 20.53 118.96 C 48.06 118.85 75.59 118.92 103.12 118.93 C 103.17 106.93 103.03 94.93 103.16 82.93 C 102.73 80.42 105.87 78.65 107.75 80.30 C 109.28 81.36 108.63 83.43 108.83 85.00 C 108.72 97.35 108.92 109.71 108.74 122.06 C 108.97 123.65 107.52 124.90 105.98 124.67 C 83.87 124.68 61.76 124.70 39.65 124.65 C 39.64 127.96 39.64 131.26 39.64 134.57 C 66.26 134.51 92.87 134.49 119.48 134.58 C 119.49 96.73 119.50 58.89 119.48 21.04 C 115.92 21.10 112.37 21.10 108.81 21.05 C 108.73 33.69 108.94 46.33 108.72 58.96 C 108.76 62.10 103.14 62.27 103.26 59.01 C 102.78 41.20 103.50 23.35 102.91 5.54 C 75.45 5.34 47.98 5.59 20.52 5.42 Z" />
<path fill="#a03826" opacity="1.00" d=" M 43.01 35.93 C 43.95 28.21 50.30 21.59 57.91 20.15 C 65.83 18.36 74.68 22.41 78.40 29.66 C 81.03 34.22 80.92 39.68 80.54 44.76 C 80.36 46.74 77.89 47.25 76.31 46.64 C 74.17 44.70 75.17 41.50 74.86 38.97 C 75.16 32.98 70.75 27.40 65.01 25.95 C 58.08 23.89 50.25 28.94 48.87 35.95 C 47.94 41.23 48.57 46.63 48.42 51.96 C 57.64 51.92 66.87 51.82 76.09 51.97 C 81.37 51.88 85.95 56.62 85.79 61.87 C 85.91 70.93 85.80 80.00 85.84 89.07 C 85.95 92.41 84.80 95.92 82.05 97.98 C 78.97 100.55 74.73 100.09 71.00 100.14 C 62.93 100.00 54.86 100.29 46.80 100.02 C 41.68 99.83 37.38 95.13 37.72 89.99 C 37.75 80.33 37.64 70.67 37.77 61.01 C 37.73 57.59 40.20 55.01 42.61 52.94 C 42.81 47.27 42.28 41.57 43.01 35.93 M 45.38 58.40 C 43.09 59.79 43.50 62.68 43.45 64.96 C 43.56 73.35 43.37 81.74 43.52 90.13 C 43.41 92.45 45.61 94.53 47.93 94.31 C 57.28 94.35 66.65 94.41 76.00 94.28 C 78.73 94.45 80.29 91.53 80.12 89.12 C 80.18 80.38 80.18 71.65 80.12 62.92 C 80.29 60.49 78.71 57.56 75.97 57.74 C 67.33 57.57 58.69 57.77 50.05 57.66 C 48.51 57.80 46.72 57.42 45.38 58.40 Z" />
<path fill="#a03826" opacity="1.00" d=" M 53.10 73.01 C 52.39 66.93 59.29 62.00 64.87 64.15 C 69.81 65.62 72.56 71.74 70.35 76.41 C 69.40 78.96 66.98 80.39 64.82 81.80 C 64.53 84.25 65.77 88.94 61.95 88.92 C 58.30 88.85 59.37 84.16 59.03 81.76 C 55.97 79.83 52.72 77.02 53.10 73.01 M 61.35 69.43 C 58.84 69.99 57.60 73.53 59.81 75.20 C 61.83 77.80 66.12 74.95 65.42 72.03 C 64.75 70.51 63.15 68.90 61.35 69.43 Z" />
<path fill="#a03826" opacity="1.00" d=" M 104.21 68.20 C 107.09 65.61 110.71 70.67 107.83 72.91 C 104.90 75.03 101.24 70.42 104.21 68.20 Z" />
</g>
</svg>
