<?xml version="1.0" encoding="UTF-8" ?>
<!DOCTYPE svg PUBLIC "-//W3C//DTD SVG 1.1//EN" "http://www.w3.org/Graphics/SVG/1.1/DTD/svg11.dtd">
<svg width="140pt" height="140pt" viewBox="0 0 140 140" version="1.1" xmlns="http://www.w3.org/2000/svg">
<g id="#a23926ff">
<path fill="#a23926" opacity="1.00" d=" M 26.19 12.06 C 24.77 10.16 21.51 6.42 24.54 4.64 C 25.42 7.01 26.86 9.41 26.19 12.06 Z" />
<path fill="#a23926" opacity="1.00" d=" M 28.28 11.73 C 29.03 9.08 29.84 6.22 32.25 4.58 C 31.69 7.25 31.27 10.66 28.28 11.73 Z" />
<path fill="#a23926" opacity="1.00" d=" M 17.50 9.76 C 19.88 10.73 23.78 10.96 24.04 14.24 C 21.68 13.12 18.22 12.74 17.50 9.76 Z" />
<path fill="#a23926" opacity="1.00" d=" M 17.65 17.62 C 23.98 15.15 30.32 12.73 36.69 10.35 C 39.40 12.45 42.12 14.54 44.90 16.54 C 42.00 24.02 39.63 31.71 36.39 39.05 C 29.42 35.07 22.25 31.47 15.21 27.63 C 16.04 24.30 16.83 20.95 17.65 17.62 M 29.27 15.22 C 30.90 16.42 32.52 17.64 34.13 18.88 C 34.53 16.82 34.95 14.77 35.41 12.73 C 33.37 13.58 31.32 14.41 29.27 15.22 M 37.15 12.87 C 36.72 14.93 36.30 16.99 35.89 19.04 C 37.94 18.24 39.98 17.40 42.03 16.58 C 40.39 15.36 38.76 14.12 37.15 12.87 M 20.12 18.68 C 21.74 19.91 23.36 21.15 25.00 22.37 C 25.39 20.35 25.79 18.33 26.20 16.32 C 24.18 17.14 22.15 17.92 20.12 18.68 M 27.94 16.42 C 27.54 18.44 27.14 20.46 26.75 22.49 C 28.88 21.69 31.02 20.91 33.15 20.14 C 31.41 18.91 29.67 17.67 27.94 16.42 M 35.65 21.02 C 36.10 25.26 36.27 29.53 36.77 33.76 C 38.63 28.64 40.41 23.49 42.36 18.40 C 40.12 19.26 37.89 20.14 35.65 21.02 M 18.87 19.73 C 18.43 21.86 18.01 23.99 17.57 26.11 C 19.60 25.22 21.65 24.38 23.71 23.57 C 22.09 22.30 20.47 21.02 18.87 19.73 M 27.01 24.39 C 29.82 27.89 32.45 31.51 35.17 35.07 C 34.62 30.58 34.22 26.08 33.83 21.57 C 31.55 22.50 29.28 23.44 27.01 24.39 M 18.67 27.50 C 23.51 30.06 28.36 32.61 33.11 35.33 C 30.61 31.73 27.82 28.33 25.18 24.82 C 23.02 25.74 20.84 26.62 18.67 27.50 Z" />
<path fill="#a23926" opacity="1.00" d=" M 68.35 13.43 C 70.84 12.28 74.26 14.18 74.19 17.01 C 74.73 20.15 70.89 22.76 68.15 21.21 C 64.91 19.85 65.02 14.58 68.35 13.43 Z" />
<path fill="#a23926" opacity="1.00" d=" M 87.40 22.46 C 89.74 20.92 93.30 22.31 93.81 25.09 C 93.90 27.96 92.95 30.72 92.32 33.48 C 89.30 46.08 86.29 58.68 83.33 71.30 C 82.86 73.22 82.25 75.65 79.99 76.13 C 76.97 77.30 73.66 74.03 74.70 70.98 C 77.91 56.62 81.55 42.36 84.82 28.01 C 85.39 26.09 85.57 23.67 87.40 22.46 Z" />
<path fill="#a23926" opacity="1.00" d=" M 55.38 37.42 C 57.79 36.46 60.77 38.15 61.03 40.77 C 62.55 50.86 64.01 60.97 65.36 71.09 C 66.20 74.12 63.04 77.27 60.03 76.13 C 57.65 75.62 56.99 73.04 56.78 70.96 C 55.51 61.62 54.09 52.30 52.82 42.96 C 52.33 40.80 53.03 38.11 55.38 37.42 Z" />
<path fill="#a23926" opacity="1.00" d=" M 105.46 37.53 C 108.31 36.13 112.03 38.72 111.35 41.93 C 111.32 45.02 107.27 46.76 104.85 45.00 C 102.12 43.35 102.45 38.68 105.46 37.53 Z" />
<path fill="#a23926" opacity="1.00" d=" M 15.42 46.42 C 17.39 45.44 19.76 46.11 21.12 47.79 C 29.61 56.35 38.22 64.81 46.67 73.42 C 49.06 75.47 47.96 79.89 44.86 80.55 C 42.21 81.37 40.30 79.02 38.63 77.39 C 30.69 69.28 22.53 61.38 14.61 53.26 C 12.54 51.43 12.96 47.71 15.42 46.42 Z" />
<path fill="#a23926" opacity="1.00" d=" M 116.44 61.63 C 119.28 60.16 122.95 62.83 122.29 66.00 C 122.27 68.63 119.45 69.58 117.45 70.43 C 110.16 73.40 102.89 76.45 95.63 79.51 C 93.81 80.19 91.72 81.31 89.83 80.19 C 86.71 78.66 87.02 73.47 90.39 72.44 C 99.06 68.81 107.72 65.13 116.44 61.63 Z" />
<path fill="#a23926" opacity="1.00" d=" M 5.20 70.20 C 8.10 69.15 11.38 71.81 10.73 74.87 C 10.55 77.87 6.75 79.51 4.30 77.89 C 1.31 76.24 1.86 71.06 5.20 70.20 Z" />
<path fill="#a23926" opacity="1.00" d=" M 12.65 91.91 C 22.59 90.14 32.86 89.95 42.84 91.53 C 53.09 93.11 63.22 97.55 70.00 105.61 C 78.78 95.12 92.84 91.17 106.03 90.57 C 113.58 90.40 121.30 90.40 128.64 92.31 C 133.18 93.88 130.81 101.67 126.05 100.20 C 112.78 98.21 98.80 98.21 86.21 103.41 C 101.52 103.14 116.70 107.02 130.35 113.85 C 131.66 114.46 132.77 115.51 133.12 116.96 C 134.61 121.60 135.45 126.41 136.80 131.09 C 137.89 132.05 138.98 133.03 140.00 134.07 L 140.00 138.34 C 138.87 137.66 137.40 138.77 137.44 140.00 L 135.54 140.00 C 120.14 136.22 104.78 132.23 89.41 128.30 C 85.39 135.09 78.01 139.96 69.95 139.74 C 61.95 139.92 54.64 135.08 50.60 128.36 C 35.16 132.15 19.81 136.32 4.34 140.00 L 2.57 140.00 C 2.61 138.77 1.12 137.67 0.00 138.35 L 0.00 134.09 C 1.02 133.03 2.11 132.06 3.20 131.09 C 4.55 126.43 5.39 121.63 6.87 117.00 C 7.21 115.51 8.36 114.44 9.71 113.82 C 23.35 107.03 38.50 103.13 53.79 103.41 C 42.04 98.63 28.99 98.07 16.55 99.92 C 14.40 100.06 11.68 101.00 10.04 99.07 C 7.63 96.70 9.22 92.11 12.65 91.91 M 14.65 120.84 C 13.94 123.66 13.21 126.48 12.45 129.29 C 26.15 125.68 39.93 122.38 53.62 118.72 C 56.10 119.49 57.38 121.62 58.27 123.91 C 61.27 130.56 70.34 133.42 76.55 129.48 C 80.17 127.65 81.76 123.81 83.55 120.43 C 85.15 118.27 88.11 119.24 90.30 119.75 C 102.70 122.99 115.16 126.02 127.55 129.29 C 126.79 126.47 126.06 123.64 125.33 120.81 C 116.12 116.79 106.50 113.38 96.45 112.32 C 89.12 111.76 81.28 111.93 74.76 115.77 C 72.83 116.65 70.74 118.68 68.50 117.49 C 64.52 115.36 60.51 113.06 55.92 112.54 C 41.67 110.54 27.54 115.14 14.65 120.84 Z" />
</g>
</svg>
